<svg width="347" height="132" viewBox="0 0 347 132" fill="none" xmlns="http://www.w3.org/2000/svg">
<path d="M3.62455 56.5553C3.404 54.4796 3.29372 53.4418 4.76841 52.4104C6.24309 51.3791 7.63561 51.2311 8.87244 51.2746C10.1093 51.3182 12.4089 51.4237 14.5712 51.8936C16.7335 52.3636 18.7487 51.4497 19.2709 51.3943C19.7931 51.3388 20.1769 48.3242 20.1769 48.3242L21.9176 48.1393L22.91 57.4799L21.1694 57.6648C21.1694 57.6648 21.0959 56.9729 19.8223 56.5835C18.5487 56.194 11.5677 56.7609 10.7709 57.5452C9.97412 58.3296 9.69951 59.0585 11.0834 60.4858C12.4672 61.9131 21.5099 62.5266 23.6636 64.5718C25.8172 66.617 25.654 71.7073 24.1977 72.9116C22.7414 74.1159 19.2049 73.9668 15.4944 73.8363C11.7839 73.7058 8.83349 72.4449 7.588 73.9767C6.34252 75.5084 6.40738 77.7756 6.40738 77.7756L4.49267 77.979L3.37154 67.4276L5.80845 67.1687C5.80845 67.1687 6.01062 69.0714 7.8983 70.2703C9.78598 71.4691 20.0828 68.9756 21.0905 68.5187C22.0981 68.0618 22.803 66.4125 20.778 65.5781C18.753 64.7437 7.34585 61.7575 6.20956 61.0036C5.07328 60.2497 3.8451 58.631 3.62455 56.5553Z" fill="#3D4871"/>
<path fill-rule="evenodd" clip-rule="evenodd" d="M49.514 48.0435L40.6896 62.2401L49.3495 61.8503L49.981 67.7939C49.981 67.7939 48.7448 68.1021 45.5554 68.7945C42.366 69.487 38.9416 69.6741 35.7457 68.5994C32.5498 67.5246 31.1835 66.6091 29.0009 63.1285C26.9446 59.8493 27.0806 56.6509 27.2032 53.7679C27.2108 53.5908 27.2182 53.415 27.2252 53.2404C27.3447 50.2223 31.2635 46.889 32.614 45.9499C33.9644 45.0109 37.7566 44.8732 41.7559 44.9786C45.7552 45.084 49.514 48.0435 49.514 48.0435ZM35.4476 60.6757C36.7024 60.5423 42.406 51.097 42.406 51.097C42.406 51.097 39.2844 50.7215 36.5956 51.0072C33.9068 51.2929 32.7885 54.4171 32.8814 55.2912C32.9743 56.1652 34.1928 60.809 35.4476 60.6757Z" fill="#4F7DBF"/>
<path fill-rule="evenodd" clip-rule="evenodd" d="M242.327 40.773L233.503 54.9696L242.163 54.5798L242.794 60.5234C242.794 60.5234 241.558 60.8315 238.369 61.524C235.179 62.2165 231.755 62.4035 228.559 61.3288C225.363 60.2541 223.997 59.3386 221.814 55.858C219.758 52.5788 219.894 49.3804 220.016 46.4973C220.024 46.3203 220.031 46.1445 220.038 45.9699C220.158 42.9518 224.077 39.6184 225.427 38.6794C226.778 37.7404 230.57 37.6026 234.569 37.7081C238.568 37.8135 242.327 40.773 242.327 40.773ZM228.261 53.4051C229.515 53.2718 235.219 43.8265 235.219 43.8265C235.219 43.8265 232.098 43.451 229.409 43.7367C226.72 44.0224 225.602 47.1466 225.695 48.0207C225.787 48.8947 227.006 53.5385 228.261 53.4051Z" fill="#3D4871"/>
<path d="M82.3605 71.8154L79.8422 75.0713C79.8422 75.0713 78.1674 72.7883 76.9098 72.7462C76.1173 72.7196 75.9018 72.7713 75.6293 72.8368C75.4695 72.8752 75.2899 72.9183 74.9626 72.9531C74.5495 72.997 74.2111 73.3776 73.745 73.902C73.2125 74.501 72.5132 75.2876 71.3452 75.9741C69.1547 77.2615 67.0674 77.8349 63.4716 77.6896C62.5382 77.6519 61.9224 77.6515 61.4824 77.6512C60.9688 77.6509 60.6949 77.6507 60.4352 77.5915C60.1384 77.5238 59.8601 77.379 59.2638 77.0688C59.107 76.9872 58.9282 76.8942 58.7214 76.7881C58.3543 76.5999 58.0281 76.4441 57.7381 76.3056C56.233 75.5868 55.7025 75.3334 55.5012 73.4389C55.3032 71.5756 55.4141 71.4722 56.4578 70.5001C56.6797 70.2934 56.9438 70.0474 57.2561 69.7369C58.7495 68.2516 59.1281 68.1208 60.8377 67.5299C61.1669 67.4161 61.5456 67.2853 61.991 67.1244C63.6231 66.535 64.7983 66.3633 65.8448 66.2104C66.5671 66.1049 67.2281 66.0084 67.9358 65.7896C69.6691 65.2539 71.5978 64.8732 71.5978 64.8732C71.5978 64.8732 73.4158 63.4496 73.2495 61.8852C73.0833 60.3209 72.3014 59.7008 70.6712 59.5225C69.0411 59.3441 65.2683 59.2177 62.259 59.5374C59.2496 59.8572 59.8437 62.0792 59.8437 62.0792L59.973 63.2959L58.015 65.086L53.1079 52.5997L55.7632 52.3175C55.7632 52.3175 57.6812 53.52 59.8608 53.8157C61.6307 54.0559 63.7021 53.8004 65.3661 53.5951C65.7513 53.5476 66.2931 53.4966 66.6259 53.4613C66.9322 53.4287 67.1386 53.3835 67.5752 53.3251C69.6615 53.0464 73.175 51.5289 74.7305 52.2358C76.4205 53.0038 76.9768 54.5363 77.2241 55.4864C77.2521 55.5938 77.4643 56.2326 77.4935 56.3367C77.5615 56.5784 77.6959 57.076 77.7813 57.3608C78.0577 58.2824 77.6197 59.209 77.7043 60.0056C77.7492 60.4275 77.6703 61.0639 77.5764 61.8218C77.4381 62.9374 77.2673 64.3163 77.4102 65.6618C77.6503 67.9214 77.6504 67.9215 78.4877 69.0629C78.966 69.715 79.4711 69.8544 79.9852 69.9963C80.3711 70.1028 80.7621 70.2106 81.1507 70.5378C81.6774 70.9812 82.3605 71.8154 82.3605 71.8154ZM72.355 71.9997C73.019 70.7566 72.5222 68.768 72.2204 67.8217C71.5248 67.9369 70.1019 68.1504 69.4335 68.0914C68.5945 68.0173 65.6979 68.9198 64.5945 69.2635C64.5098 69.2899 64.4356 69.313 64.3738 69.3321C63.5072 69.6 62.3973 70.9484 61.9217 71.5262C61.446 72.1041 61.1658 72.837 61.4167 73.5135C61.6676 74.1899 62.4311 74.6361 63.1761 74.9085C63.9212 75.1809 68.7376 75.0207 69.7444 74.3864C69.9544 74.254 70.1516 74.146 70.3401 74.0427C71.0548 73.6509 71.6461 73.3268 72.355 71.9997Z" fill="#3D4871"/>
<path d="M82.2013 48.3665L81.9237 45.7539L89.7707 44.9201L89.9743 46.8361C89.9743 46.8361 95.0603 47.1764 97.7472 45.3056C100.434 43.4348 101.984 42.7418 101.984 42.7418C101.984 42.7418 105.576 44.2976 105.503 48.7089C105.431 53.1201 104.768 57.0657 104.768 57.0657L102.45 57.312C102.45 57.312 102.068 55.415 100.69 54.3284C99.3119 53.2419 97.3687 53.6245 97.3687 53.6245C97.3687 53.6245 96.2986 53.7382 94.214 54.4881C92.1295 55.238 92.1059 58.4111 92.1059 58.4111L92.6241 63.288L96.6401 63.742L97.2189 65.7942L84.2001 67.1775L84.015 65.4357L87.9873 63.7807L85.8119 50.0966L82.2013 48.3665Z" fill="#4F7DBF"/>
<path d="M128.833 38.6315L128.72 37.5685L119.348 38.5644C119.348 38.5644 115.373 39.8111 113.464 41.5187C111.638 43.1524 110.708 44.3972 110.007 46.7235C109.261 49.2029 108.638 50.9898 109.431 55.0263C110.225 59.0628 110.168 58.5313 112.054 60.8392C113.94 63.1472 114.946 62.8061 117.458 63.6691C120.945 64.8667 124.058 64.6371 127.702 64.0139C130.617 63.5156 134.942 61.8114 134.942 61.8114L133.944 52.4217L130.869 54.3609C130.869 54.3609 127.213 56.8369 124.122 57.7653C120.926 58.7252 118.379 59.7287 115.575 57.9567C114.776 57.4513 114.798 57.5018 114.163 56.6735C113.528 55.8451 113.111 55.3519 112.942 53.7574C112.772 52.1629 114.101 50.9467 115.952 49.4959C117.803 48.0451 120.811 47.188 123.875 46.8624L130.401 46.5273L128.833 38.6315Z" fill="#3D4871"/>
<path d="M136.148 40.2586C135.281 38.6929 133.569 36.4606 133.569 36.4606C133.569 36.4606 135.636 34.0448 137.375 33.0464C139.057 32.0809 142.103 31.4819 142.103 31.4819L143.572 45.3122C143.572 45.3122 146.275 43.1458 148.367 42.6782C150.833 42.127 152.571 42.24 154.789 43.4122C157.689 44.9452 158.079 47.3837 159.334 50.3651C161.338 55.127 160.729 63.4951 160.729 63.4951L165.389 63L165.575 64.7507L151.954 66.198L151.768 64.4473L156.947 63.72C156.947 63.72 157.799 56.6425 154.99 53.8364C153.547 52.394 153.321 51.4709 151.269 51.222C148.107 50.8387 146.307 52.3035 144.595 54.9409C142.443 58.2587 144.222 65.072 144.222 65.072L148.363 64.8091L148.549 66.5598L136.361 67.8547L136.157 65.929L140.835 65.6089L139.198 50.203C139.198 50.203 138.121 43.8214 136.148 40.2586Z" fill="#4F7DBF"/>
<path d="M192.951 41.3971C192.099 39.7939 190.42 37.5056 190.42 37.5056C190.42 37.5056 192.422 35.049 194.111 34.0382C195.744 33.0608 198.708 32.4644 198.708 32.4644L200.21 46.5953C200.21 46.5953 202.832 44.3967 204.868 43.9297C207.267 43.3793 208.961 43.5035 211.128 44.7117C213.961 46.2919 214.353 48.784 215.591 51.835C217.567 56.7079 217.016 65.2505 217.016 65.2505L221.553 64.7684L221.743 66.5571L208.481 67.9663L208.291 66.1776L213.332 65.461C213.332 65.461 214.127 58.2378 211.377 55.3579C209.963 53.8777 209.739 52.9339 207.738 52.6694C204.655 52.2619 202.909 53.7487 201.255 56.4334C199.175 59.8107 200.942 66.7775 200.942 66.7775L204.975 66.5299L205.165 68.3186L193.299 69.5794L193.09 67.6118L197.646 67.3086L195.973 51.5678C195.973 51.5678 194.892 45.0455 192.951 41.3971Z" fill="#4F7DBF"/>
<path d="M180.256 65.907C178.205 62.274 177.815 54.4805 177.815 54.4805L170.014 55.3094L169.447 49.9761L177.248 49.1472L176.473 41.8584L173.353 42.19L173.183 40.59C172.909 38.0063 179.484 38.8418 179.484 38.8418L180.542 48.7973L186.609 48.1526L187.62 52.7195L180.588 54.1858C180.588 54.1858 180.024 58.2047 181.287 60.7635C181.895 61.9944 182.163 62.9344 183.342 63.6015C184.385 64.1922 185.668 64.9836 186.364 63.9995C186.771 63.4248 186.522 62.1849 186.522 62.1849L188.082 62.0191L189.008 70.7301C189.008 70.7301 187.572 71.0687 186.408 71.0064C184.727 70.9165 184.085 70.452 182.733 69.4192C181.199 68.2477 181.214 67.6035 180.256 65.907Z" fill="#3D4871"/>
<path d="M265.624 60.2082C263.62 55.0189 262.904 46.2262 262.904 46.2262L260.812 46.4485L260.553 44.0095L266.504 38.6201L268.945 38.3607L265.62 45.2329C265.62 45.2329 264.447 55.5001 268.239 59.9303C268.935 60.7424 270.398 61.9913 270.398 61.9913L270.87 56.4794L272.296 49.9852C272.296 49.9852 272.882 52.9336 273.531 54.9635C274.301 57.3749 277.132 58.9854 277.132 58.9854L279.198 60.1754C279.198 60.1754 277.471 47.8377 279.566 40.4036C280.537 36.9553 283.073 31.9264 283.073 31.9264L279.75 30.5176L284.792 24.8725L292.953 27.0005L289.342 32.8459L285.681 33.2349C285.681 33.2349 282.338 41.8107 281.564 47.5911C280.68 54.1864 279.517 58.5036 282.139 64.6199C283.831 68.5676 288.718 73.4349 288.718 73.4349L286.626 73.6572C286.626 73.6572 280.701 69.8979 277.928 66.4768C275.495 63.4752 273.129 57.8251 273.129 57.8251C273.129 57.8251 272.067 62.6435 272.723 65.6204C273.391 68.6478 276.465 72.6226 276.465 72.6226L273.501 72.9375C273.501 72.9375 267.73 65.6609 265.624 60.2082Z" fill="#3D4871"/>
<path fill-rule="evenodd" clip-rule="evenodd" d="M300.92 65.6659L309.208 40.9609C309.208 40.9609 306.482 36.661 303.823 35.0035C303.762 34.9654 303.701 34.9276 303.641 34.8901C301.503 33.5565 299.98 32.6065 297.434 32.8587C295.434 33.0568 292.582 36.2761 291.65 38.0616C289.424 42.3287 289.131 44.3693 288.635 47.8302C288.544 48.4607 288.447 49.1385 288.33 49.8854C287.365 56.0517 289.702 62.7989 289.702 62.7989C289.702 62.7989 290.883 69.6181 294.166 71.6778C296.455 73.1134 298.344 73.007 300.897 72.8632C301.151 72.8489 301.412 72.8342 301.68 72.8207C305.442 72.6304 310.875 69.9024 310.875 69.9024L309.892 60.6536C309.892 60.6536 308.066 65.853 305.227 66.4436C303.554 66.7916 300.92 65.6659 300.92 65.6659ZM302.832 48.8739L297.221 67.2943C297.221 67.2943 294.132 66.3871 293.021 64.211C291.909 62.0349 291.761 60.6389 291.557 58.7193C291.542 58.5811 291.526 58.4362 291.51 58.285C291.294 56.3357 290.965 53.3582 291.941 50.7371C292.467 49.3234 292.99 48.3382 294.237 47.493C295.765 46.4568 297.084 46.3057 298.899 46.6447C300.559 46.9548 302.832 48.8739 302.832 48.8739Z" fill="#3D4871"/>
<path fill-rule="evenodd" clip-rule="evenodd" d="M306.158 27.161L305.842 24.1907L307.993 23.9622L311.534 26.5897C311.534 26.5897 312.602 30.8301 313.333 33.2896C314.742 38.0291 315.331 45.2692 315.331 45.2692C315.331 45.2692 316.897 42.9504 319.23 42.7346C319.616 42.6989 320.009 42.6386 320.403 42.5782C321.74 42.3733 323.084 42.1673 324.143 42.9194C325.946 44.1997 326.028 44.6688 326.255 45.9546C326.337 46.4257 326.44 47.0064 326.653 47.7768C327.971 52.5416 328.391 60.1794 326.464 64.7595C325.433 67.2085 324.969 67.4673 323.214 68.4456C322.874 68.6354 322.485 68.8523 322.033 69.1175C319.71 70.4836 316.212 70.6195 316.212 70.6195L312.048 74.0658L308.105 74.4847L315.254 68.4243L310.002 29.2262L306.158 27.161ZM318.236 52.9472C318.718 51.8682 319.097 51.0196 320.461 50.9084C322.203 50.7664 323.16 51.9509 324.163 53.3422C325.535 55.2465 325.684 57.1118 324.794 59.2827C324.127 60.9105 323.341 61.8894 321.705 62.6147L321.701 62.6165C320.421 63.1838 320.382 63.201 319.159 62.5319C318.033 61.9162 317.595 61.4612 317.231 59.733C316.738 57.4018 316.539 56.1238 317.712 54.0277C317.92 53.6551 318.083 53.2896 318.236 52.9472Z" fill="#3D4871"/>
<path d="M172.118 80.8596C172.353 79.2333 173.545 76.8335 173.545 76.8335L241.095 62.8922C241.095 62.8922 245.685 67.8759 245.326 73.0601C245.215 74.6586 245.468 79.1409 245.468 79.1409L179.452 93.6166C179.452 93.6166 176.678 92.7505 175.213 91.2443C172.401 88.3523 171.543 84.8522 172.118 80.8596Z" fill="#19234E"/>
<path fill-rule="evenodd" clip-rule="evenodd" d="M243.056 74.1712L252.071 71.9673C252.071 71.9673 259.077 83.0357 265.373 88.3534C272.284 94.1907 276.969 97.2032 285.752 99.3598C294.117 101.413 306.606 100.339 314.477 96.8416C319.742 94.5022 329.207 88.9655 335.456 80.0168C339.953 73.5782 340.819 66.0974 341.187 61.9644C341.666 56.5736 342.025 41.5027 336.469 30.9604C330.506 19.6462 324.338 13.5726 312.569 8.58052C302.739 4.41068 295.888 3.63014 285.394 5.59415C273.358 7.84681 265.833 11.6751 258.248 21.2942C252.106 29.0837 250.152 35.1601 249.209 45.038C248.5 52.4693 251.229 64.047 251.229 64.047L241.178 66.5389L243.056 74.1712ZM259.931 28.7692C264.448 20.3183 268.053 15.9079 276.383 11.1795C281.238 8.42387 284.417 7.36891 289.96 6.71103C295.838 6.0133 299.374 6.45488 305.051 8.13337C314.58 10.9504 319.625 15.0649 325.823 22.8359C333.256 32.1536 334.785 40.2172 335.421 46.2015C336.536 56.7 337.234 67.8804 331.935 77.0091C327.52 84.6164 322.001 90.011 314.178 94.0255C308.346 97.0184 304.441 97.9148 297.888 98.0703C292.377 98.201 289.115 97.7488 283.953 95.8131C276.991 93.2027 273.685 90.002 268.535 84.6355C263.015 78.8825 260.232 74.9576 257.463 67.4784C254.32 58.9869 253.211 50.7069 254.733 41.7812C255.757 35.7783 257.062 34.1388 259.931 28.7692Z" fill="#6D6D6E"/>
</svg>
